<?xml version="1.0" encoding="utf-8"?>
<!-- Generator: Adobe Illustrator 27.5.0, SVG Export Plug-In . SVG Version: 6.00 Build 0)  -->
<svg version="1.1" id="Capa_1" xmlns="http://www.w3.org/2000/svg" xmlns:xlink="http://www.w3.org/1999/xlink" x="0px" y="0px"
	 viewBox="0 0 1200 1200" style="enable-background:new 0 0 1200 1200;" xml:space="preserve">
<rect x="-9" y="-4" style="fill:#B23B39;" width="1217" height="1208"/>
<path style="fill:#9E3533;" d="M544.05,993.539c9.013,5.012,23.627,4.779,32.477-0.518l406.174-243.184
	c8.85-5.297,8.733-13.769-0.259-18.816L730.678,589.608c-8.993-5.055-23.545-4.776-32.34,0.61L295.784,836.781
	c-8.796,5.384-8.616,13.897,0.396,18.908L544.05,993.539z"/>
<g>
	<path style="fill:#474747;" d="M706.545,198.976h-20.202v0.003c-3.364-0.226-7.409,0.899-11.764,3.527l-382.925,231.26
		c-11.677,7.054-12.775,22.239-12.775,33.915v277.983c0,7.659,4.085,11.879,10.18,11.907v0.03h21.743v-10.216l363.777-224.606
		c11.678-7.053,21.144-22.236,21.144-33.917V216.706h10.822V198.976z"/>
	<path style="fill:#FFFFFF;" d="M549.03,894.833c8.542,4.751,22.392,4.529,30.778-0.491l384.927-230.464
		c8.386-5.019,8.276-13.047-0.246-17.831L725.896,512.031c-8.523-4.791-22.314-4.528-30.648,0.578L313.751,746.275
		c-8.336,5.103-8.166,13.171,0.376,17.919L549.03,894.833z"/>
	<path style="fill:#1A1A1A;" d="M716.16,488.865c0,11.681-9.467,26.864-21.146,33.917L312.09,754.044
		c-11.678,7.051-21.144,3.303-21.144-8.378V467.682c0-11.676,9.466-26.861,21.144-33.915l382.924-231.26
		c11.679-7.051,21.146-3.303,21.146,8.375V488.865z"/>
	<path style="fill:#649DC8;" d="M325.528,473.005c0.403-2.49,3.906-8.083,7.463-10.23l348.586-210.523v236.643
		c-0.402,2.494-3.906,8.085-7.461,10.229L325.528,709.651V473.005z"/>
	<path style="fill:#7A7A7A;" d="M549.534,927.451c8.542,4.746,22.392,4.527,30.778-0.493l384.929-230.466
		c8.385-5.017,5.617-42.655,5.617-42.655L726.401,544.645c-8.522-4.786-22.313-4.527-30.65,0.579L307.618,755.894
		c0,0-1.528,36.166,7.014,40.914L549.534,927.451z"/>
	<path style="fill:#E6E8E9;" d="M549.03,894.833c8.542,4.751,22.392,4.529,30.778-0.491l384.927-230.464
		c8.386-5.019,8.276-13.047-0.246-17.831L725.896,512.031c-8.523-4.791-22.314-4.528-30.648,0.578L313.751,746.275
		c-8.336,5.103-8.166,13.171,0.376,17.919L549.03,894.833z"/>
	<path style="fill:#1A1A1A;" d="M691.774,528.374l-12.462-7.403L342.25,720.552l11.539,6.161c6.865,3.959,18.093,3.952,24.953-0.014
		L691.75,542.828C698.612,538.865,698.622,532.361,691.774,528.374z"/>
	<polygon style="fill:#CCCCCC;" points="607.652,767.682 722.78,697.004 804.255,742.765 687.423,812.046 	"/>
	<g>
		<path style="fill:#1A1A1A;" d="M415.643,763.375c3.171,1.668,3.451,4.412,0.621,6.145l-20.899,12.797
			c-2.822,1.728-7.684,1.785-10.852,0.119l-23.45-12.321c-3.171-1.668-3.455-4.424-0.627-6.157l20.896-12.797
			c2.829-1.724,7.689-1.775,10.858-0.112L415.643,763.375z"/>
		<path style="fill:#1A1A1A;" d="M451.407,741.468c3.17,1.665,3.449,4.417,0.624,6.148l-20.898,12.8
			c-2.826,1.733-7.687,1.778-10.856,0.112l-23.449-12.316c-3.173-1.67-3.453-4.422-0.625-6.152l20.896-12.797
			c2.825-1.738,7.685-1.785,10.859-0.117L451.407,741.468z"/>
		<path style="fill:#1A1A1A;" d="M495.077,805.112c3.171,1.663,3.452,4.417,0.627,6.148l-20.897,12.802
			c-2.827,1.728-7.687,1.778-10.857,0.11L440.5,811.85c-3.172-1.665-3.452-4.417-0.625-6.147l20.892-12.797
			c2.83-1.733,7.69-1.782,10.86-0.119L495.077,805.112z"/>
		<path style="fill:#1A1A1A;" d="M530.842,783.205c3.171,1.668,3.451,4.424,0.626,6.155l-20.893,12.795
			c-2.826,1.726-7.693,1.782-10.861,0.117l-23.451-12.321c-3.172-1.668-3.453-4.421-0.624-6.152l20.898-12.8
			c2.823-1.724,7.683-1.778,10.853-0.115L530.842,783.205z"/>
		<path style="fill:#1A1A1A;" d="M732.667,659.607c3.17,1.665,3.453,4.417,0.624,6.147L546.668,780.047
			c-2.825,1.728-7.687,1.782-10.861,0.117l-23.449-12.318c-3.174-1.672-3.454-4.424-0.629-6.155L698.358,647.4
			c2.823-1.728,7.688-1.784,10.859-0.117L732.667,659.607z"/>
		<path style="fill:#1A1A1A;" d="M486.511,719.968c3.169,1.665,3.448,4.414,0.622,6.152l-20.895,12.797
			c-2.826,1.728-7.688,1.782-10.859,0.119l-23.449-12.323c-3.171-1.665-3.455-4.421-0.63-6.152l20.902-12.797
			c2.823-1.728,7.689-1.784,10.858-0.114L486.511,719.968z"/>
		<path style="fill:#1A1A1A;" d="M522.273,698.064c3.174,1.67,3.452,4.422,0.631,6.155l-20.901,12.797
			c-2.826,1.728-7.685,1.78-10.857,0.11l-23.451-12.318c-3.169-1.668-3.452-4.419-0.628-6.15l20.898-12.797
			c2.824-1.728,7.688-1.782,10.86-0.117L522.273,698.064z"/>
		<path style="fill:#1A1A1A;" d="M557.047,676.767c3.172,1.668,3.448,4.424,0.622,6.154l-20.895,12.8
			c-2.825,1.731-7.687,1.782-10.859,0.114l-23.449-12.323c-3.172-1.663-3.455-4.421-0.627-6.15l20.899-12.797
			c2.823-1.731,7.685-1.782,10.858-0.117L557.047,676.767z"/>
		<path style="fill:#1A1A1A;" d="M592.813,654.865c3.169,1.668,3.452,4.424,0.628,6.154l-20.902,12.795
			c-2.825,1.731-7.686,1.787-10.856,0.119l-23.449-12.323c-3.171-1.668-3.453-4.422-0.627-6.152l20.898-12.797
			c2.825-1.731,7.689-1.782,10.856-0.117L592.813,654.865z"/>
		<path style="fill:#1A1A1A;" d="M528.672,738.883c3.166,1.663,3.648,4.298,1.064,5.879l-19.101,11.697
			c-2.584,1.586-7.246,1.514-10.417-0.152l-23.452-12.321c-3.169-1.663-3.648-4.295-1.065-5.881l19.101-11.697
			c2.583-1.583,7.247-1.516,10.421,0.154L528.672,738.883z"/>
		<path style="fill:#1A1A1A;" d="M561.364,718.861c3.17,1.663,3.647,4.298,1.066,5.884l-19.105,11.695
			c-2.581,1.581-7.247,1.513-10.417-0.154l-23.451-12.321c-3.172-1.665-3.647-4.3-1.063-5.884l19.1-11.695
			c2.587-1.584,7.249-1.516,10.417,0.152L561.364,718.861z"/>
		<path style="fill:#1A1A1A;" d="M593.148,699.395c3.169,1.665,3.648,4.298,1.064,5.884l-19.103,11.695
			c-2.58,1.584-7.248,1.514-10.419-0.152l-23.449-12.321c-3.172-1.665-3.647-4.3-1.064-5.881l19.099-11.702
			c2.584-1.577,7.25-1.511,10.418,0.154L593.148,699.395z"/>
		<path style="fill:#1A1A1A;" d="M625.839,679.376c3.17,1.668,3.648,4.298,1.063,5.879l-19.101,11.7
			c-2.582,1.581-7.249,1.511-10.417-0.152l-23.453-12.323c-3.17-1.665-3.647-4.298-1.062-5.881l19.1-11.699
			c2.58-1.579,7.247-1.511,10.418,0.154L625.839,679.376z"/>
		<path style="fill:#1A1A1A;" d="M658.206,659.555c3.168,1.663,3.647,4.295,1.061,5.881l-19.1,11.697
			c-2.581,1.584-7.249,1.509-10.418-0.152l-23.45-12.326c-3.173-1.665-3.647-4.295-1.065-5.881l19.1-11.697
			c2.583-1.581,7.247-1.513,10.417,0.152L658.206,659.555z"/>
		<path style="fill:#1A1A1A;" d="M690.894,639.531c3.171,1.665,3.648,4.3,1.067,5.881l-19.104,11.697
			c-2.58,1.584-7.245,1.513-10.415-0.152l-23.451-12.326c-3.169-1.663-3.648-4.298-1.068-5.877l19.106-11.699
			c2.58-1.581,7.244-1.514,10.418,0.154L690.894,639.531z"/>
		<path style="fill:#1A1A1A;" d="M722.679,620.066c3.171,1.665,3.649,4.3,1.066,5.881l-19.102,11.697
			c-2.582,1.581-7.248,1.516-10.416-0.152l-23.455-12.321c-3.171-1.665-3.647-4.3-1.063-5.881l19.104-11.697
			c2.58-1.586,7.242-1.516,10.417,0.15L722.679,620.066z"/>
		<path style="fill:#1A1A1A;" d="M769.172,637.247c3.17,1.665,3.442,4.426,0.606,6.164l-20.979,12.849
			c-2.835,1.733-7.706,1.794-10.874,0.128l-8.857-4.655c-3.17-1.665-3.443-4.426-0.605-6.161l20.979-12.846
			c2.833-1.74,7.707-1.796,10.875-0.128L769.172,637.247z"/>
		<path style="fill:#1A1A1A;" d="M839.95,593.906c3.171,1.663,3.443,4.424,0.608,6.157l-20.98,12.851
			c-2.838,1.735-7.709,1.789-10.877,0.128l-8.854-4.655c-3.175-1.665-3.445-4.424-0.61-6.161l20.98-12.849
			c2.837-1.735,7.707-1.794,10.878-0.128L839.95,593.906z"/>
		<path style="fill:#1A1A1A;" d="M804.343,615.707c3.169,1.665,3.443,4.424,0.607,6.162l-20.976,12.849
			c-2.837,1.738-7.712,1.794-10.88,0.128l-21.038-11.057c-3.173-1.668-3.446-4.424-0.609-6.161l20.979-12.846
			c2.832-1.74,7.707-1.794,10.877-0.131L804.343,615.707z"/>
		<path style="fill:#1A1A1A;" d="M627.912,633.37c3.174,1.668,3.455,4.421,0.627,6.15l-20.898,12.795
			c-2.825,1.733-7.686,1.782-10.853,0.119l-23.453-12.323c-3.17-1.665-3.452-4.419-0.629-6.148l20.898-12.8
			c2.828-1.731,7.689-1.782,10.859-0.115L627.912,633.37z"/>
		<path style="fill:#1A1A1A;" d="M663.68,611.466c3.168,1.665,3.449,4.422,0.624,6.15l-20.899,12.797
			c-2.823,1.733-7.687,1.782-10.855,0.119l-23.45-12.323c-3.173-1.665-3.452-4.421-0.628-6.15l20.895-12.797
			c2.827-1.733,7.691-1.782,10.863-0.117L663.68,611.466z"/>
		<path style="fill:#1A1A1A;" d="M698.929,589.877c3.171,1.668,3.452,4.422,0.628,6.152l-20.899,12.797
			c-2.824,1.733-7.685,1.782-10.856,0.117l-23.451-12.323c-3.168-1.665-3.451-4.419-0.627-6.152l20.897-12.797
			c2.825-1.731,7.685-1.782,10.859-0.114L698.929,589.877z"/>
		<path style="fill:#1A1A1A;" d="M761.004,551.863c3.168,1.665,3.45,4.42,0.625,6.151l-47.72,29.227
			c-2.826,1.728-7.686,1.78-10.856,0.115l-23.449-12.323c-3.171-1.665-3.452-4.422-0.627-6.15l47.718-29.227
			c2.826-1.731,7.689-1.78,10.86-0.114L761.004,551.863z"/>
		<path style="fill:#1A1A1A;" d="M800.317,572.52c3.171,1.668,3.453,4.419,0.625,6.15l-61.959,37.946
			c-2.824,1.728-7.686,1.782-10.855,0.117l-23.452-12.323c-3.17-1.665-3.45-4.417-0.625-6.15l61.956-37.948
			c2.826-1.729,7.687-1.782,10.86-0.112L800.317,572.52z"/>
		<path style="fill:#1A1A1A;" d="M495.686,759.084c3.171,1.661,3.454,4.417,0.627,6.15l-61.96,37.943
			c-2.828,1.733-7.687,1.787-10.856,0.117l-23.452-12.321c-3.175-1.672-3.456-4.421-0.626-6.15l61.959-37.948
			c2.824-1.726,7.686-1.782,10.857-0.119L495.686,759.084z"/>
	</g>
	<g>
		<polygon style="fill:#84ADD2;" points="482.979,372.192 325.527,665.562 325.527,709.651 378.426,677.704 570.888,319.1 		"/>
		<polygon style="fill:#84ADD2;" points="680.14,253.119 638.875,278.04 446.414,636.643 487.68,611.721 		"/>
	</g>
</g>
</svg>
